<svg xmlns="http://www.w3.org/2000/svg" viewBox="0 0 100 27"><path fill="#bbb" d="M62.988,0.879c-1.982-1.445-4.698-1.084-5.958,0.903L46.186,16.417l-3.252-3.614c-1.626-1.807-4.336-1.807-6.143-0.176c-1.807,1.622-1.807,4.336-0.181,6.143l6.866,7.227c0.903,0.898,1.987,1.445,3.071,1.445h0.181c1.265,0,2.529-0.723,3.252-1.631l13.917-18.79C65.342,5.035,64.98,2.324,62.988,0.879z"/><path fill="#ccc" d="M27.757,0.879c-1.987-1.445-4.697-1.084-6.143,0.903L10.773,16.241l-3.252-3.614c-1.626-1.807-4.336-1.807-6.143-0.186c-1.807,1.631-1.807,4.336-0.181,6.143l6.866,7.227c0.903,0.908,1.987,1.445,3.071,1.445h0.181c1.265,0,2.529-0.723,3.252-1.621l13.912-18.79C29.925,5.035,29.563,2.324,27.757,0.879z"/><path fill="#FFFFFF" d="M98.224,0.879c-1.807-1.445-4.521-1.084-5.967,0.903l-10.84,14.635l-3.252-3.614c-1.621-1.807-4.337-1.807-6.144-0.176c-1.807,1.622-1.807,4.336-0.176,6.143l6.866,7.227c0.898,0.898,1.982,1.445,3.066,1.445h0.186c1.26,0,2.529-0.723,3.252-1.631l13.907-18.79C100.568,5.035,100.207,2.324,98.224,0.879z"/></svg>
