<svg xmlns="http://www.w3.org/2000/svg" viewBox="0 0 420 53"><path fill="#fff" d="m28.11 13.145l4.891 16.263 4.125-16.324h10.195l-9.135 29.584h-9.842l-4.654-16.795-4.656 16.795h-9.781l-9.252-29.584h10.488l4.303 16.207 4.773-16.15h8.545m46.965 17.794h-19.211c.531 3.596 2.77 5.068 6.307 5.068 2.77 0 4.654-.883 5.893-3.064l6.6 4.184c-2.475 4.303-7.248 6.424-13.494 6.424-9.666 0-16.03-5.01-16.03-15.381 0-9.84 5.775-15.91 15.615-15.91 10.432 0 14.557 6.836 14.557 15.262-.001 1.121-.06 2.181-.238 3.417m-10.08-6.068c-.178-3.064-1.65-4.832-4.361-4.832-2.652 0-4.479 1.648-4.832 4.832h9.193m11.785-19.271c0 3.771 2.299 5.48 6.363 5.48 4.01 0 6.248-1.709 6.248-5.48 0-3.891-2.24-5.6-6.248-5.6-4.064 0-6.363 1.709-6.363 5.6m.649 7.484v29.584h11.432v-29.584h-11.432m59.41-11.668h-11.432v41.25h11.432v-14.379c.059-4.125 2.121-6.07 4.949-6.07 2.83 0 4.244 1.355 4.244 5.893v14.557h11.432v-18.624c0-6.775-3.24-11.785-10.607-11.785-4.301 0-7.955 2.18-10.02 6.07v-16.914m22.734 31.23c0 8.428 5.303 10.902 11.609 10.902 3.357 0 6.188-.766 8.484-2.121l-1.473-6.777c-1.119.59-2.357.826-3.654.826-2.533 0-3.771-1.355-3.771-3.949v-10.195h7.604v-8.25h-7.604v-8.25h-11.195v27.814m38.25-19.503l-4.773 16.15-4.301-16.207h-10.49l9.252 29.584h9.783l4.654-16.795 4.656 16.795h9.84l9.133-29.584h-10.193l-4.125 16.324-4.891-16.264h-8.545m58.4-.06v29.584h-9.547l-.707-4.42c-2 3.477-5.422 5.303-9.605 5.303-7.543 0-12.551-5.186-12.551-15.203 0-11.08 5.361-16.09 13.02-16.09 4.359 0 7.602 1.592 9.428 4.891l.824-4.066h9.135m-11.198 14.851c0-5.305-2.238-7.367-5.303-7.367-3.123 0-4.949 2.121-4.949 7.426 0 4.773 1.59 7.131 4.949 7.131 3.124-.001 5.303-2.3 5.303-7.19m13.395 4.712c0 8.428 5.303 10.902 11.609 10.902 3.357 0 6.188-.766 8.484-2.121l-1.473-6.777c-1.119.59-2.357.826-3.654.826-2.533 0-3.771-1.355-3.771-3.949v-10.195h7.604v-8.25h-7.604v-8.25h-11.195v27.814m34.779 10.903c7.01 0 11.373-2.652 13.906-7.424l-7.719-4.42c-.826 2.18-2.711 3.418-5.539 3.418-3.891 0-5.246-2.711-5.246-7.131 0-5.305 1.945-6.777 5.363-6.777 2.299 0 3.889.766 5.068 3.242l7.777-5.658c-2.592-4.596-6.834-6.541-13.08-6.541-10.08 0-16.03 4.773-16.03 15.676.001 11.08 6.128 15.615 15.499 15.615m25.928-42.14h-11.432v41.25h11.432v-14.379c.061-4.125 2.123-6.07 4.951-6.07s4.242 1.355 4.242 5.893v14.557h11.434v-18.624c0-6.775-3.242-11.785-10.607-11.785-4.303 0-7.957 2.18-10.02 6.07v-16.914m51.5 29.523h-19.211c.531 3.596 2.77 5.068 6.307 5.068 2.77 0 4.654-.883 5.893-3.064l6.6 4.184c-2.475 4.303-7.248 6.424-13.494 6.424-9.666 0-16.03-5.01-16.03-15.381 0-9.84 5.775-15.91 15.615-15.91 10.432 0 14.557 6.836 14.557 15.262-.002 1.121-.06 2.181-.238 3.417m-10.08-6.068c-.178-3.064-1.65-4.832-4.361-4.832-2.652 0-4.479 1.648-4.832 4.832h9.193m11.904 17.797h11.432v-10.549c.059-5.717 2.945-9.547 9.252-9.135l-.117-10.842c-4.539 0-8.252 2.533-10.254 6.658l-.943-5.717h-9.369v29.585m33.823-6.248c-3.771 0-7.189-1.295-8.898-3.652l-4.949 5.303c2.533 3.596 7.482 5.422 13.789 5.422 10.195 0 13.848-4.773 13.848-9.783 0-4.359-2.711-7.719-9.252-9.191l-3.418-.768c-2.475-.529-3.418-1.236-3.418-2.238 0-1.297 1.414-1.768 3.596-1.768 3.594 0 5.893 1.414 7.365 3.182l5.305-5.422c-2.77-3.652-7.367-5.244-12.965-5.244-8.957 0-13.02 4.125-13.02 9.664 0 5.717 4.301 8.723 9.842 10.02l2.475.59c2.357.531 3.477.943 3.477 2.121-.002 1.237-1.241 1.766-3.774 1.766m-283.01-23.336v25.508c0 10.02-7.365 14.791-17.443 14.791-5.834 0-11.549-1.709-13.906-6.188l6.01-5.539c1.709 2.711 4.361 3.83 7.367 3.83 4.242 0 6.541-2.18 6.541-6.66v-1.226c-1.768 3.01-4.596 4.596-8.723 4.596-7.248 0-12.256-4.832-12.256-14.791 0-10.135 5.303-15.14 13.02-15.14 4.184 0 7.484 1.65 9.369 4.891l.824-4.066h9.194m-11.314 14.08c0-4.301-2.121-6.6-5.244-6.6-3.182 0-5.01 2.24-5.01 6.66 0 4.713 1.77 6.836 5.01 6.836s5.244-2.418 5.244-6.896"/></svg>